<?xml version="1.0" encoding="UTF-8"?>
<svg width="512" height="512" viewBox="0 0 512 512" fill="none" xmlns="http://www.w3.org/2000/svg">
  <circle cx="256" cy="256" r="248" fill="#4CAF50" stroke="white" stroke-width="16"/>
  <path d="M380 180c0 68.483-55.517 124-124 124s-124-55.517-124-124 55.517-124 124-124 124 55.517 124 124z" fill="white"/>
  <path d="M256 420c-88.366 0-160-71.634-160-160 0-88.366 71.634-160 160-160 88.366 0 160 71.634 160 160 0 88.366-71.634 160-160 160zm0-280c-66.274 0-120 53.726-120 120s53.726 120 120 120 120-53.726 120-120-53.726-120-120-120z" fill="white"/>
  <path d="M256 340c-44.183 0-80-35.817-80-80s35.817-80 80-80 80 35.817 80 80-35.817 80-80 80zm0-120c-22.091 0-40 17.909-40 40s17.909 40 40 40 40-17.909 40-40-17.909-40-40-40z" fill="#4CAF50"/>
</svg> 