<?xml version="1.0" encoding="UTF-8"?>
<svg width="800" height="600" viewBox="0 0 800 600" xmlns="http://www.w3.org/2000/svg">
  <!-- Sky -->
  <rect width="800" height="600" fill="#87CEEB"/>
  
  <!-- Sun -->
  <circle cx="700" cy="100" r="50" fill="#FFD700"/>
  
  <!-- Clouds -->
  <g fill="#FFFFFF">
    <circle cx="200" cy="100" r="30"/>
    <circle cx="240" cy="100" r="40"/>
    <circle cx="280" cy="100" r="30"/>
    <circle cx="400" cy="150" r="25"/>
    <circle cx="440" cy="150" r="35"/>
    <circle cx="480" cy="150" r="25"/>
  </g>
  
  <!-- Ocean -->
  <rect x="0" y="300" width="800" height="300" fill="#1E90FF"/>
  
  <!-- Waves -->
  <g fill="#FFFFFF" opacity="0.6">
    <path d="M0,350 Q100,330 200,350 T400,350 T600,350 T800,350 L800,600 L0,600 Z"/>
    <path d="M0,380 Q100,360 200,380 T400,380 T600,380 T800,380 L800,600 L0,600 Z"/>
    <path d="M0,410 Q100,390 200,410 T400,410 T600,410 T800,410 L800,600 L0,600 Z"/>
  </g>
  
  <!-- Beach -->
  <rect x="0" y="250" width="800" height="50" fill="#F4A460"/>
  
  <!-- Palm Trees -->
  <g>
    <!-- Left Palm Tree -->
    <rect x="100" y="200" width="10" height="50" fill="#8B4513"/>
    <path d="M105,200 Q85,180 65,200 T25,200" fill="#228B22"/>
    <path d="M105,200 Q125,180 145,200 T185,200" fill="#228B22"/>
    <path d="M105,200 Q85,220 65,200 T25,200" fill="#228B22"/>
    <path d="M105,200 Q125,220 145,200 T185,200" fill="#228B22"/>
    
    <!-- Right Palm Tree -->
    <rect x="600" y="200" width="10" height="50" fill="#8B4513"/>
    <path d="M605,200 Q585,180 565,200 T525,200" fill="#228B22"/>
    <path d="M605,200 Q625,180 645,200 T685,200" fill="#228B22"/>
    <path d="M605,200 Q585,220 565,200 T525,200" fill="#228B22"/>
    <path d="M605,200 Q625,220 645,200 T685,200" fill="#228B22"/>
  </g>
  
  <!-- Beach Umbrella -->
  <g>
    <rect x="400" y="230" width="5" height="20" fill="#8B4513"/>
    <path d="M402.5,230 Q382.5,210 362.5,230 T322.5,230" fill="#FF0000"/>
    <path d="M402.5,230 Q422.5,210 442.5,230 T482.5,230" fill="#FF0000"/>
  </g>
  
  <!-- Beach Ball -->
  <circle cx="300" cy="270" r="15" fill="#FF0000"/>
  <circle cx="300" cy="270" r="15" fill="#FFFFFF" opacity="0.5"/>
  <circle cx="300" cy="270" r="7" fill="#0000FF"/>
  
  <!-- Birds -->
  <g fill="#000000">
    <path d="M200,150 Q220,140 240,150 T280,150"/>
    <path d="M400,200 Q420,190 440,200 T480,200"/>
    <path d="M600,250 Q620,240 640,250 T680,250"/>
  </g>
</svg> 