<?xml version="1.0" encoding="UTF-8"?>
<svg width="800" height="600" viewBox="0 0 800 600" xmlns="http://www.w3.org/2000/svg">
  <!-- Sky -->
  <defs>
    <linearGradient id="skyGradient" x1="0%" y1="0%" x2="0%" y2="100%">
      <stop offset="0%" style="stop-color:#1E90FF;stop-opacity:1" />
      <stop offset="100%" style="stop-color:#87CEEB;stop-opacity:1" />
    </linearGradient>
  </defs>
  <rect width="800" height="600" fill="url(#skyGradient)"/>
  
  <!-- Sun -->
  <circle cx="700" cy="100" r="40" fill="#FFD700"/>
  
  <!-- Buildings -->
  <g transform="translate(50,200)">
    <!-- Building 1 -->
    <rect x="0" y="0" width="100" height="300" fill="#4A4A4A"/>
    <rect x="20" y="20" width="20" height="40" fill="#FFD700"/>
    <rect x="60" y="20" width="20" height="40" fill="#FFD700"/>
    <rect x="20" y="80" width="20" height="40" fill="#FFD700"/>
    <rect x="60" y="80" width="20" height="40" fill="#FFD700"/>
    
    <!-- Building 2 -->
    <rect x="120" y="50" width="120" height="250" fill="#6B6B6B"/>
    <rect x="140" y="70" width="30" height="50" fill="#FFD700"/>
    <rect x="190" y="70" width="30" height="50" fill="#FFD700"/>
    <rect x="140" y="140" width="30" height="50" fill="#FFD700"/>
    <rect x="190" y="140" width="30" height="50" fill="#FFD700"/>
    
    <!-- Building 3 -->
    <rect x="260" y="0" width="150" height="350" fill="#808080"/>
    <rect x="280" y="30" width="40" height="60" fill="#FFD700"/>
    <rect x="340" y="30" width="40" height="60" fill="#FFD700"/>
    <rect x="280" y="110" width="40" height="60" fill="#FFD700"/>
    <rect x="340" y="110" width="40" height="60" fill="#FFD700"/>
    
    <!-- Building 4 -->
    <rect x="430" y="100" width="130" height="250" fill="#A9A9A9"/>
    <rect x="450" y="120" width="35" height="55" fill="#FFD700"/>
    <rect x="505" y="120" width="35" height="55" fill="#FFD700"/>
    <rect x="450" y="195" width="35" height="55" fill="#FFD700"/>
    <rect x="505" y="195" width="35" height="55" fill="#FFD700"/>
  </g>
  
  <!-- Ground -->
  <rect x="0" y="500" width="800" height="100" fill="#333333"/>
  
  <!-- Roads -->
  <rect x="0" y="520" width="800" height="20" fill="#4A4A4A"/>
  <rect x="390" y="500" width="20" height="100" fill="#4A4A4A"/>
  
  <!-- Road Markings -->
  <rect x="0" y="530" width="800" height="2" fill="#FFFFFF"/>
  <rect x="400" y="500" width="2" height="100" fill="#FFFFFF"/>
  
  <!-- Trees -->
  <g transform="translate(100,480)">
    <circle cx="0" cy="0" r="15" fill="#228B22"/>
    <rect x="-5" y="15" width="10" height="20" fill="#8B4513"/>
  </g>
  
  <!-- Clouds -->
  <g transform="translate(100,100)">
    <circle cx="0" cy="0" r="20" fill="#FFFFFF"/>
    <circle cx="15" cy="-10" r="15" fill="#FFFFFF"/>
    <circle cx="30" cy="0" r="20" fill="#FFFFFF"/>
  </g>
</svg> 