<?xml version="1.0" encoding="UTF-8"?>
<svg width="800" height="600" viewBox="0 0 800 600" xmlns="http://www.w3.org/2000/svg">
  <!-- Sky -->
  <rect width="800" height="600" fill="#FFA07A"/>
  
  <!-- Sun -->
  <circle cx="700" cy="100" r="50" fill="#FFD700"/>
  
  <!-- Clouds -->
  <g fill="#FFFFFF" opacity="0.8">
    <circle cx="200" cy="100" r="30"/>
    <circle cx="240" cy="100" r="40"/>
    <circle cx="280" cy="100" r="30"/>
    <circle cx="400" cy="150" r="25"/>
    <circle cx="440" cy="150" r="35"/>
    <circle cx="480" cy="150" r="25"/>
  </g>
  
  <!-- Desert Ground -->
  <rect x="0" y="300" width="800" height="300" fill="#DEB887"/>
  
  <!-- Sand Dunes -->
  <g fill="#D2B48C">
    <!-- Left Dune -->
    <path d="M0,300 Q200,200 400,300 T800,300 L800,600 L0,600 Z"/>
    <!-- Middle Dune -->
    <path d="M200,350 Q400,250 600,350 T800,350 L800,600 L200,600 Z"/>
    <!-- Right Dune -->
    <path d="M400,400 Q600,300 800,400 T800,400 L800,600 L400,600 Z"/>
  </g>
  
  <!-- Cactus -->
  <g>
    <!-- Left Cactus -->
    <rect x="150" y="250" width="20" height="100" fill="#228B22"/>
    <rect x="130" y="270" width="60" height="20" fill="#228B22"/>
    <rect x="130" y="310" width="60" height="20" fill="#228B22"/>
    
    <!-- Right Cactus -->
    <rect x="600" y="280" width="20" height="120" fill="#228B22"/>
    <rect x="580" y="300" width="60" height="20" fill="#228B22"/>
    <rect x="580" y="340" width="60" height="20" fill="#228B22"/>
    <rect x="580" y="380" width="60" height="20" fill="#228B22"/>
  </g>
  
  <!-- Oasis -->
  <g>
    <!-- Water -->
    <circle cx="400" cy="400" r="50" fill="#1E90FF"/>
    <!-- Palm Trees -->
    <g>
      <!-- Left Palm -->
      <rect x="380" y="350" width="5" height="50" fill="#8B4513"/>
      <path d="M382.5,350 Q362.5,330 342.5,350 T302.5,350" fill="#228B22"/>
      <path d="M382.5,350 Q402.5,330 422.5,350 T462.5,350" fill="#228B22"/>
      
      <!-- Right Palm -->
      <rect x="420" y="350" width="5" height="50" fill="#8B4513"/>
      <path d="M422.5,350 Q402.5,330 382.5,350 T342.5,350" fill="#228B22"/>
      <path d="M422.5,350 Q442.5,330 462.5,350 T502.5,350" fill="#228B22"/>
    </g>
  </g>
  
  <!-- Birds -->
  <g fill="#000000">
    <path d="M200,150 Q220,140 240,150 T280,150"/>
    <path d="M400,200 Q420,190 440,200 T480,200"/>
    <path d="M600,250 Q620,240 640,250 T680,250"/>
  </g>
</svg> 