<?xml version="1.0" encoding="UTF-8"?>
<svg width="800" height="600" viewBox="0 0 800 600" xmlns="http://www.w3.org/2000/svg">
  <!-- Sky -->
  <rect width="800" height="600" fill="#87CEEB"/>
  
  <!-- Sun -->
  <circle cx="700" cy="100" r="50" fill="#FFD700"/>
  
  <!-- Clouds -->
  <g fill="#FFFFFF">
    <circle cx="200" cy="100" r="30"/>
    <circle cx="240" cy="100" r="40"/>
    <circle cx="280" cy="100" r="30"/>
    <circle cx="400" cy="150" r="25"/>
    <circle cx="440" cy="150" r="35"/>
    <circle cx="480" cy="150" r="25"/>
  </g>
  
  <!-- Mountains -->
  <g>
    <!-- Background Mountains -->
    <path d="M0,400 L200,200 L400,400 Z" fill="#A9A9A9"/>
    <path d="M200,400 L400,150 L600,400 Z" fill="#808080"/>
    <path d="M400,400 L600,250 L800,400 Z" fill="#696969"/>
    
    <!-- Snow Caps -->
    <path d="M0,400 L200,200 L180,220 L20,400 Z" fill="#FFFFFF"/>
    <path d="M200,400 L400,150 L380,170 L220,400 Z" fill="#FFFFFF"/>
    <path d="M400,400 L600,250 L580,270 L420,400 Z" fill="#FFFFFF"/>
  </g>
  
  <!-- Trees -->
  <g fill="#228B22">
    <!-- Left Side Trees -->
    <path d="M100,450 L130,400 L160,450 Z"/>
    <path d="M150,450 L180,400 L210,450 Z"/>
    <path d="M200,450 L230,400 L260,450 Z"/>
    
    <!-- Right Side Trees -->
    <path d="M600,450 L630,400 L660,450 Z"/>
    <path d="M650,450 L680,400 L710,450 Z"/>
    <path d="M700,450 L730,400 L760,450 Z"/>
  </g>
  
  <!-- Resort Building -->
  <g transform="translate(400,300)">
    <!-- Main Building -->
    <rect x="-100" y="-150" width="200" height="150" fill="#FFFFFF"/>
    <!-- Windows -->
    <g fill="#87CEEB">
      <rect x="-80" y="-130" width="30" height="30"/>
      <rect x="-30" y="-130" width="30" height="30"/>
      <rect x="20" y="-130" width="30" height="30"/>
      <rect x="70" y="-130" width="30" height="30"/>
      <rect x="-80" y="-80" width="30" height="30"/>
      <rect x="-30" y="-80" width="30" height="30"/>
      <rect x="20" y="-80" width="30" height="30"/>
      <rect x="70" y="-80" width="30" height="30"/>
    </g>
    <!-- Roof -->
    <path d="M-120,-150 L400,-150 L400,-170 L-120,-170 Z" fill="#8B4513"/>
  </g>
  
  <!-- Ski Lift -->
  <g>
    <!-- Cable -->
    <line x1="100" y1="200" x2="700" y2="200" stroke="#000000" stroke-width="2"/>
    <!-- Posts -->
    <line x1="100" y1="200" x2="100" y2="400" stroke="#8B4513" stroke-width="4"/>
    <line x1="400" y1="200" x2="400" y2="400" stroke="#8B4513" stroke-width="4"/>
    <line x1="700" y1="200" x2="700" y2="400" stroke="#8B4513" stroke-width="4"/>
    <!-- Chairs -->
    <g transform="translate(250,200)">
      <rect x="-20" y="0" width="40" height="30" fill="#FF6347"/>
      <circle cx="0" cy="30" r="5" fill="#000000"/>
    </g>
    <g transform="translate(550,200)">
      <rect x="-20" y="0" width="40" height="30" fill="#FF6347"/>
      <circle cx="0" cy="30" r="5" fill="#000000"/>
    </g>
  </g>
</svg> 